<mxfile host="Electron" agent="Mozilla/5.0 (Windows NT 10.0; Win64; x64) AppleWebKit/537.36 (KHTML, like Gecko) draw.io/24.7.8 Chrome/128.0.6613.36 Electron/32.0.1 Safari/537.36" version="24.7.8">
  <diagram name="第 1 页" id="kbEidFH0fJJXHUaXsiNO">
    <mxGraphModel dx="2607" dy="2689" grid="1" gridSize="10" guides="1" tooltips="1" connect="1" arrows="1" fold="1" page="1" pageScale="1" pageWidth="827" pageHeight="1169" background="none" math="0" shadow="0">
      <root>
        <mxCell id="0" />
        <mxCell id="1" parent="0" />
        <mxCell id="0QPHbNopzDCmvThJAkTK-109" value="" style="group;" parent="1" vertex="1" connectable="0">
          <mxGeometry x="1174.25" y="-940" width="456" height="570" as="geometry" />
        </mxCell>
        <mxCell id="0QPHbNopzDCmvThJAkTK-12" value="Web业务系统" style="rounded=1;whiteSpace=wrap;html=1;absoluteArcSize=1;arcSize=14;strokeWidth=2;dashed=1;fillColor=#fff2cc;strokeColor=#d6b656;" parent="0QPHbNopzDCmvThJAkTK-109" vertex="1">
          <mxGeometry width="456" height="540" as="geometry" />
        </mxCell>
        <mxCell id="0QPHbNopzDCmvThJAkTK-13" value="客户端配置" style="rounded=1;whiteSpace=wrap;html=1;absoluteArcSize=1;arcSize=14;strokeWidth=2;" parent="0QPHbNopzDCmvThJAkTK-109" vertex="1">
          <mxGeometry x="46" y="40" width="100" height="100" as="geometry" />
        </mxCell>
        <mxCell id="0QPHbNopzDCmvThJAkTK-14" value="游戏版本" style="rounded=1;whiteSpace=wrap;html=1;absoluteArcSize=1;arcSize=14;strokeWidth=2;" parent="0QPHbNopzDCmvThJAkTK-109" vertex="1">
          <mxGeometry x="46" y="160" width="100" height="100" as="geometry" />
        </mxCell>
        <mxCell id="0QPHbNopzDCmvThJAkTK-15" value="资源版本" style="rounded=1;whiteSpace=wrap;html=1;absoluteArcSize=1;arcSize=14;strokeWidth=2;" parent="0QPHbNopzDCmvThJAkTK-109" vertex="1">
          <mxGeometry x="46" y="280" width="100" height="100" as="geometry" />
        </mxCell>
        <mxCell id="0QPHbNopzDCmvThJAkTK-16" value="登录系统" style="rounded=1;whiteSpace=wrap;html=1;absoluteArcSize=1;arcSize=14;strokeWidth=2;" parent="0QPHbNopzDCmvThJAkTK-109" vertex="1">
          <mxGeometry x="296" y="40" width="100" height="100" as="geometry" />
        </mxCell>
        <mxCell id="0QPHbNopzDCmvThJAkTK-22" value="支付系统" style="rounded=1;whiteSpace=wrap;html=1;absoluteArcSize=1;arcSize=14;strokeWidth=2;" parent="0QPHbNopzDCmvThJAkTK-109" vertex="1">
          <mxGeometry x="46" y="400" width="100" height="100" as="geometry" />
        </mxCell>
        <mxCell id="0QPHbNopzDCmvThJAkTK-63" value="第三方SDK登录系统" style="rounded=1;whiteSpace=wrap;html=1;absoluteArcSize=1;arcSize=14;strokeWidth=2;" parent="0QPHbNopzDCmvThJAkTK-109" vertex="1">
          <mxGeometry x="296" y="160" width="100" height="100" as="geometry" />
        </mxCell>
        <mxCell id="0QPHbNopzDCmvThJAkTK-64" value="第三方支付回调系统" style="rounded=1;whiteSpace=wrap;html=1;absoluteArcSize=1;arcSize=14;strokeWidth=2;" parent="0QPHbNopzDCmvThJAkTK-109" vertex="1">
          <mxGeometry x="296" y="280" width="100" height="100" as="geometry" />
        </mxCell>
        <mxCell id="0QPHbNopzDCmvThJAkTK-65" value="第三方广告回调系统" style="rounded=1;whiteSpace=wrap;html=1;absoluteArcSize=1;arcSize=14;strokeWidth=2;" parent="0QPHbNopzDCmvThJAkTK-109" vertex="1">
          <mxGeometry x="296" y="400" width="100" height="100" as="geometry" />
        </mxCell>
        <mxCell id="0QPHbNopzDCmvThJAkTK-70" value="对外提供HTTP服务,可分布式部署" style="text;align=center;verticalAlign=middle;resizable=0;points=[];autosize=1;labelBackgroundColor=none;labelBorderColor=none;textShadow=0;" parent="0QPHbNopzDCmvThJAkTK-109" vertex="1">
          <mxGeometry x="128" y="540" width="200" height="30" as="geometry" />
        </mxCell>
        <mxCell id="0QPHbNopzDCmvThJAkTK-23" style="edgeStyle=orthogonalEdgeStyle;rounded=0;orthogonalLoop=1;jettySize=auto;html=1;exitX=0.25;exitY=0;exitDx=0;exitDy=0;entryX=0;entryY=0.25;entryDx=0;entryDy=0;" parent="1" target="0QPHbNopzDCmvThJAkTK-13" edge="1">
          <mxGeometry relative="1" as="geometry">
            <mxPoint x="80.06" y="150" as="sourcePoint" />
            <mxPoint x="865.06" y="-150" as="targetPoint" />
            <Array as="points">
              <mxPoint x="40" y="150" />
              <mxPoint x="40" y="-875" />
            </Array>
          </mxGeometry>
        </mxCell>
        <mxCell id="0QPHbNopzDCmvThJAkTK-24" value="1.请求客户端配置" style="edgeLabel;html=1;align=center;verticalAlign=middle;resizable=0;points=[];fontSize=16;" parent="0QPHbNopzDCmvThJAkTK-23" vertex="1" connectable="0">
          <mxGeometry x="0.108" y="3" relative="1" as="geometry">
            <mxPoint x="75" y="3" as="offset" />
          </mxGeometry>
        </mxCell>
        <mxCell id="0QPHbNopzDCmvThJAkTK-31" style="edgeStyle=orthogonalEdgeStyle;rounded=0;orthogonalLoop=1;jettySize=auto;html=1;exitX=0.5;exitY=0;exitDx=0;exitDy=0;entryX=0;entryY=0.25;entryDx=0;entryDy=0;" parent="1" source="0QPHbNopzDCmvThJAkTK-4" target="0QPHbNopzDCmvThJAkTK-14" edge="1">
          <mxGeometry relative="1" as="geometry">
            <Array as="points">
              <mxPoint x="90" y="-755" />
            </Array>
          </mxGeometry>
        </mxCell>
        <mxCell id="0QPHbNopzDCmvThJAkTK-32" value="3. 请求游戏版本信息" style="edgeLabel;html=1;align=center;verticalAlign=middle;resizable=0;points=[];fontSize=16;" parent="0QPHbNopzDCmvThJAkTK-31" vertex="1" connectable="0">
          <mxGeometry x="0.1907" y="-2" relative="1" as="geometry">
            <mxPoint x="-73" y="-2" as="offset" />
          </mxGeometry>
        </mxCell>
        <mxCell id="0QPHbNopzDCmvThJAkTK-35" style="edgeStyle=orthogonalEdgeStyle;rounded=0;orthogonalLoop=1;jettySize=auto;html=1;exitX=0.75;exitY=0;exitDx=0;exitDy=0;entryX=0;entryY=0.25;entryDx=0;entryDy=0;" parent="1" source="0QPHbNopzDCmvThJAkTK-4" target="0QPHbNopzDCmvThJAkTK-15" edge="1">
          <mxGeometry relative="1" as="geometry">
            <Array as="points">
              <mxPoint x="125" y="-635" />
            </Array>
          </mxGeometry>
        </mxCell>
        <mxCell id="0QPHbNopzDCmvThJAkTK-36" value="5. 请求游戏资源信息" style="edgeLabel;html=1;align=center;verticalAlign=middle;resizable=0;points=[];fontSize=16;" parent="0QPHbNopzDCmvThJAkTK-35" vertex="1" connectable="0">
          <mxGeometry x="-0.0517" y="-2" relative="1" as="geometry">
            <mxPoint x="105" as="offset" />
          </mxGeometry>
        </mxCell>
        <mxCell id="0QPHbNopzDCmvThJAkTK-41" style="edgeStyle=orthogonalEdgeStyle;rounded=0;orthogonalLoop=1;jettySize=auto;html=1;exitX=1;exitY=0.25;exitDx=0;exitDy=0;entryX=0.018;entryY=0.132;entryDx=0;entryDy=0;entryPerimeter=0;" parent="1" target="0QPHbNopzDCmvThJAkTK-9" edge="1">
          <mxGeometry relative="1" as="geometry">
            <mxPoint x="160" y="197" as="sourcePoint" />
            <mxPoint x="770" y="179" as="targetPoint" />
          </mxGeometry>
        </mxCell>
        <mxCell id="0QPHbNopzDCmvThJAkTK-42" value="7. 通过客户端请求到的配置去连接网关服务器" style="edgeLabel;html=1;align=center;verticalAlign=middle;resizable=0;points=[];fontSize=16;" parent="0QPHbNopzDCmvThJAkTK-41" vertex="1" connectable="0">
          <mxGeometry x="0.1656" relative="1" as="geometry">
            <mxPoint x="-168" as="offset" />
          </mxGeometry>
        </mxCell>
        <mxCell id="0QPHbNopzDCmvThJAkTK-66" style="edgeStyle=orthogonalEdgeStyle;rounded=0;orthogonalLoop=1;jettySize=auto;html=1;exitX=1;exitY=0.18;exitDx=0;exitDy=0;exitPerimeter=0;entryX=0;entryY=0.25;entryDx=0;entryDy=0;" parent="1" edge="1">
          <mxGeometry relative="1" as="geometry">
            <mxPoint x="160" y="279.99999999999955" as="sourcePoint" />
            <mxPoint x="910.0000000000005" y="279.99999999999955" as="targetPoint" />
          </mxGeometry>
        </mxCell>
        <mxCell id="0QPHbNopzDCmvThJAkTK-68" value="9. 登录账号" style="edgeLabel;html=1;align=center;verticalAlign=middle;resizable=0;points=[];fontSize=16;" parent="0QPHbNopzDCmvThJAkTK-66" vertex="1" connectable="0">
          <mxGeometry x="0.0093" relative="1" as="geometry">
            <mxPoint x="-179" as="offset" />
          </mxGeometry>
        </mxCell>
        <mxCell id="0QPHbNopzDCmvThJAkTK-4" value="" style="rounded=1;whiteSpace=wrap;html=1;absoluteArcSize=1;arcSize=14;strokeWidth=2;fillColor=#fff2cc;strokeColor=#d6b656;points=[[0,0,0,0,0],[0,0.25,0,0,0],[0,0.5,0,0,0],[0,0.75,0,0,0],[0,1,0,0,0],[0.25,0,0,0,0],[0.25,1,0,0,0],[0.5,0,0,0,0],[0.5,1,0,0,0],[0.75,0,0,0,0],[0.75,1,0,0,0],[1,0,0,0,0],[1,0.05,0,0,0],[1,0.09,0,0,0],[1,0.1,0,0,0],[1,0.14,0,0,0],[1,0.18,0,0,0],[1,0.19,0,0,0],[1,0.24,0,0,0],[1,0.25,0,0,0],[1,0.27,0,0,0],[1,0.29,0,0,0],[1,0.33,0,0,0],[1,0.36,0,0,0],[1,0.38,0,0,0],[1,0.43,0,0,0],[1,0.45,0,0,0],[1,0.48,0,0,0],[1,0.5,0,0,0],[1,0.52,0,0,0],[1,0.55,0,0,0],[1,0.57,0,0,0],[1,0.62,0,0,0],[1,0.64,0,0,0],[1,0.67,0,0,0],[1,0.71,0,0,0],[1,0.73,0,0,0],[1,0.75,0,0,0],[1,0.76,0,0,0],[1,0.81,0,0,0],[1,0.82,0,0,0],[1,0.86,0,0,0],[1,0.9,0,0,0],[1,0.91,0,0,0],[1,0.95,0,0,0],[1,1,0,0,0]];" parent="1" vertex="1">
          <mxGeometry x="20" y="150" width="140" height="500" as="geometry" />
        </mxCell>
        <mxCell id="0QPHbNopzDCmvThJAkTK-43" style="edgeStyle=orthogonalEdgeStyle;rounded=0;orthogonalLoop=1;jettySize=auto;html=1;exitX=0.002;exitY=0.141;exitDx=0;exitDy=0;entryX=1;entryY=0.25;entryDx=0;entryDy=0;exitPerimeter=0;" parent="1" edge="1">
          <mxGeometry relative="1" as="geometry">
            <mxPoint x="909.2800000000002" y="224.75999999999976" as="sourcePoint" />
            <mxPoint x="159" y="225" as="targetPoint" />
          </mxGeometry>
        </mxCell>
        <mxCell id="0QPHbNopzDCmvThJAkTK-44" value="8. 连接网关服务器成功" style="edgeLabel;html=1;align=center;verticalAlign=middle;resizable=0;points=[];fontSize=16;" parent="0QPHbNopzDCmvThJAkTK-43" vertex="1" connectable="0">
          <mxGeometry x="0.0176" relative="1" as="geometry">
            <mxPoint x="-177" as="offset" />
          </mxGeometry>
        </mxCell>
        <mxCell id="0QPHbNopzDCmvThJAkTK-47" style="edgeStyle=orthogonalEdgeStyle;rounded=0;orthogonalLoop=1;jettySize=auto;html=1;exitX=0.011;exitY=0.305;exitDx=0;exitDy=0;entryX=1;entryY=0.5;entryDx=0;entryDy=0;exitPerimeter=0;" parent="1" edge="1">
          <mxGeometry relative="1" as="geometry">
            <mxPoint x="911.5400000000004" y="304.7999999999997" as="sourcePoint" />
            <mxPoint x="160" y="305.00000000000045" as="targetPoint" />
          </mxGeometry>
        </mxCell>
        <mxCell id="0QPHbNopzDCmvThJAkTK-48" value="10. 登录账号成功" style="edgeLabel;html=1;align=center;verticalAlign=middle;resizable=0;points=[];fontSize=16;" parent="0QPHbNopzDCmvThJAkTK-47" vertex="1" connectable="0">
          <mxGeometry x="-0.1246" y="-1" relative="1" as="geometry">
            <mxPoint x="-205" as="offset" />
          </mxGeometry>
        </mxCell>
        <mxCell id="0QPHbNopzDCmvThJAkTK-51" style="edgeStyle=orthogonalEdgeStyle;rounded=0;orthogonalLoop=1;jettySize=auto;html=1;exitX=-0.007;exitY=0.478;exitDx=0;exitDy=0;entryX=1;entryY=0.5;entryDx=0;entryDy=0;exitPerimeter=0;" parent="1" edge="1">
          <mxGeometry relative="1" as="geometry">
            <mxPoint x="909.0200000000004" y="377.0799999999999" as="sourcePoint" />
            <mxPoint x="160" y="377.00000000000045" as="targetPoint" />
          </mxGeometry>
        </mxCell>
        <mxCell id="0QPHbNopzDCmvThJAkTK-52" value="12. 返回玩家角色列表" style="edgeLabel;html=1;align=center;verticalAlign=middle;resizable=0;points=[];fontSize=16;" parent="0QPHbNopzDCmvThJAkTK-51" vertex="1" connectable="0">
          <mxGeometry x="0.4746" y="-2" relative="1" as="geometry">
            <mxPoint x="81" as="offset" />
          </mxGeometry>
        </mxCell>
        <mxCell id="0QPHbNopzDCmvThJAkTK-29" style="edgeStyle=orthogonalEdgeStyle;rounded=0;orthogonalLoop=1;jettySize=auto;html=1;entryX=0.311;entryY=-0.002;entryDx=0;entryDy=0;entryPerimeter=0;exitX=0;exitY=0.75;exitDx=0;exitDy=0;" parent="1" source="0QPHbNopzDCmvThJAkTK-13" target="0QPHbNopzDCmvThJAkTK-4" edge="1">
          <mxGeometry relative="1" as="geometry">
            <mxPoint x="820" y="-150" as="sourcePoint" />
            <Array as="points">
              <mxPoint x="64" y="-825" />
            </Array>
          </mxGeometry>
        </mxCell>
        <mxCell id="0QPHbNopzDCmvThJAkTK-30" value="&lt;span style=&quot;font-size: 16px;&quot;&gt;2.返回客户端配置&lt;/span&gt;" style="edgeLabel;html=1;align=center;verticalAlign=middle;resizable=0;points=[];" parent="0QPHbNopzDCmvThJAkTK-29" vertex="1" connectable="0">
          <mxGeometry x="-0.1757" y="-3" relative="1" as="geometry">
            <mxPoint x="-42" as="offset" />
          </mxGeometry>
        </mxCell>
        <mxCell id="0QPHbNopzDCmvThJAkTK-33" style="edgeStyle=orthogonalEdgeStyle;rounded=0;orthogonalLoop=1;jettySize=auto;html=1;exitX=0;exitY=0.75;exitDx=0;exitDy=0;" parent="1" source="0QPHbNopzDCmvThJAkTK-14" edge="1">
          <mxGeometry relative="1" as="geometry">
            <mxPoint x="100" y="150" as="targetPoint" />
            <Array as="points">
              <mxPoint x="100" y="-705" />
            </Array>
          </mxGeometry>
        </mxCell>
        <mxCell id="0QPHbNopzDCmvThJAkTK-34" value="&lt;font style=&quot;font-size: 16px;&quot;&gt;4. 返回游戏版本信息&lt;/font&gt;" style="edgeLabel;html=1;align=center;verticalAlign=middle;resizable=0;points=[];" parent="0QPHbNopzDCmvThJAkTK-33" vertex="1" connectable="0">
          <mxGeometry x="-0.0551" y="-2" relative="1" as="geometry">
            <mxPoint x="30" as="offset" />
          </mxGeometry>
        </mxCell>
        <mxCell id="0QPHbNopzDCmvThJAkTK-37" style="edgeStyle=orthogonalEdgeStyle;rounded=0;orthogonalLoop=1;jettySize=auto;html=1;exitX=0;exitY=0.75;exitDx=0;exitDy=0;entryX=0.824;entryY=-0.002;entryDx=0;entryDy=0;entryPerimeter=0;" parent="1" source="0QPHbNopzDCmvThJAkTK-15" target="0QPHbNopzDCmvThJAkTK-4" edge="1">
          <mxGeometry relative="1" as="geometry">
            <Array as="points">
              <mxPoint x="135" y="-585" />
            </Array>
          </mxGeometry>
        </mxCell>
        <mxCell id="0QPHbNopzDCmvThJAkTK-38" value="6. 返回游戏资源信息" style="edgeLabel;html=1;align=center;verticalAlign=middle;resizable=0;points=[];fontSize=16;" parent="0QPHbNopzDCmvThJAkTK-37" vertex="1" connectable="0">
          <mxGeometry x="0.0648" y="-4" relative="1" as="geometry">
            <mxPoint x="87" y="4" as="offset" />
          </mxGeometry>
        </mxCell>
        <mxCell id="0QPHbNopzDCmvThJAkTK-49" style="edgeStyle=orthogonalEdgeStyle;rounded=0;orthogonalLoop=1;jettySize=auto;html=1;exitX=1;exitY=0.25;exitDx=0;exitDy=0;entryX=0.018;entryY=0.419;entryDx=0;entryDy=0;entryPerimeter=0;" parent="1" edge="1">
          <mxGeometry relative="1" as="geometry">
            <mxPoint x="160" y="350" as="sourcePoint" />
            <mxPoint x="912.5200000000004" y="350.84000000000015" as="targetPoint" />
          </mxGeometry>
        </mxCell>
        <mxCell id="0QPHbNopzDCmvThJAkTK-50" value="11. 获取玩家角色列表" style="edgeLabel;html=1;align=center;verticalAlign=middle;resizable=0;points=[];fontSize=16;" parent="0QPHbNopzDCmvThJAkTK-49" vertex="1" connectable="0">
          <mxGeometry x="0.0535" y="-1" relative="1" as="geometry">
            <mxPoint x="-119" as="offset" />
          </mxGeometry>
        </mxCell>
        <mxCell id="0QPHbNopzDCmvThJAkTK-54" value="Android" style="rounded=1;whiteSpace=wrap;html=1;absoluteArcSize=1;arcSize=14;strokeWidth=2;shadow=1;" parent="1" vertex="1">
          <mxGeometry x="40" y="170" width="100" height="40" as="geometry" />
        </mxCell>
        <mxCell id="0QPHbNopzDCmvThJAkTK-56" value="iOS" style="rounded=1;whiteSpace=wrap;html=1;absoluteArcSize=1;arcSize=14;strokeWidth=2;shadow=1;" parent="1" vertex="1">
          <mxGeometry x="40" y="230" width="100" height="40" as="geometry" />
        </mxCell>
        <mxCell id="0QPHbNopzDCmvThJAkTK-57" value="PC" style="rounded=1;whiteSpace=wrap;html=1;absoluteArcSize=1;arcSize=14;strokeWidth=2;shadow=1;" parent="1" vertex="1">
          <mxGeometry x="40" y="290" width="100" height="40" as="geometry" />
        </mxCell>
        <mxCell id="0QPHbNopzDCmvThJAkTK-58" value="MacOsX" style="rounded=1;whiteSpace=wrap;html=1;absoluteArcSize=1;arcSize=14;strokeWidth=2;shadow=1;" parent="1" vertex="1">
          <mxGeometry x="40" y="350" width="100" height="40" as="geometry" />
        </mxCell>
        <mxCell id="0QPHbNopzDCmvThJAkTK-59" value="H5" style="rounded=1;whiteSpace=wrap;html=1;absoluteArcSize=1;arcSize=14;strokeWidth=2;shadow=1;" parent="1" vertex="1">
          <mxGeometry x="40" y="410" width="100" height="40" as="geometry" />
        </mxCell>
        <mxCell id="0QPHbNopzDCmvThJAkTK-60" value="微信小游戏" style="rounded=1;whiteSpace=wrap;html=1;absoluteArcSize=1;arcSize=14;strokeWidth=2;shadow=1;" parent="1" vertex="1">
          <mxGeometry x="40" y="470" width="100" height="40" as="geometry" />
        </mxCell>
        <mxCell id="0QPHbNopzDCmvThJAkTK-61" value="抖音小游戏" style="rounded=1;whiteSpace=wrap;html=1;absoluteArcSize=1;arcSize=14;strokeWidth=2;shadow=1;" parent="1" vertex="1">
          <mxGeometry x="40" y="530" width="100" height="40" as="geometry" />
        </mxCell>
        <mxCell id="0QPHbNopzDCmvThJAkTK-62" value="其他平台" style="rounded=1;whiteSpace=wrap;html=1;absoluteArcSize=1;arcSize=14;strokeWidth=2;shadow=1;" parent="1" vertex="1">
          <mxGeometry x="40" y="585" width="100" height="40" as="geometry" />
        </mxCell>
        <mxCell id="0QPHbNopzDCmvThJAkTK-71" style="edgeStyle=orthogonalEdgeStyle;rounded=0;orthogonalLoop=1;jettySize=auto;html=1;exitX=1;exitY=0.43;exitDx=0;exitDy=0;exitPerimeter=0;entryX=0;entryY=0.599;entryDx=0;entryDy=0;entryPerimeter=0;" parent="1" edge="1">
          <mxGeometry relative="1" as="geometry">
            <mxPoint x="160" y="424.99999999999955" as="sourcePoint" />
            <mxPoint x="910" y="425.6399999999999" as="targetPoint" />
          </mxGeometry>
        </mxCell>
        <mxCell id="0QPHbNopzDCmvThJAkTK-72" value="13. 选择指定的角色登录游戏服务器" style="edgeLabel;html=1;align=center;verticalAlign=middle;resizable=0;points=[];fontSize=16;" parent="0QPHbNopzDCmvThJAkTK-71" vertex="1" connectable="0">
          <mxGeometry x="-0.4695" relative="1" as="geometry">
            <mxPoint x="170" as="offset" />
          </mxGeometry>
        </mxCell>
        <mxCell id="0QPHbNopzDCmvThJAkTK-74" style="edgeStyle=orthogonalEdgeStyle;rounded=0;orthogonalLoop=1;jettySize=auto;html=1;exitX=0;exitY=0.667;exitDx=0;exitDy=0;exitPerimeter=0;entryX=1;entryY=0.48;entryDx=0;entryDy=0;entryPerimeter=0;" parent="1" edge="1">
          <mxGeometry relative="1" as="geometry">
            <mxPoint x="910" y="453.1199999999999" as="sourcePoint" />
            <mxPoint x="160" y="452.99999999999955" as="targetPoint" />
          </mxGeometry>
        </mxCell>
        <mxCell id="0QPHbNopzDCmvThJAkTK-75" value="14. 登录游戏完成" style="edgeLabel;html=1;align=center;verticalAlign=middle;resizable=0;points=[];fontSize=16;" parent="0QPHbNopzDCmvThJAkTK-74" vertex="1" connectable="0">
          <mxGeometry x="0.4404" relative="1" as="geometry">
            <mxPoint x="94" as="offset" />
          </mxGeometry>
        </mxCell>
        <mxCell id="0QPHbNopzDCmvThJAkTK-91" value="" style="group;labelBackgroundColor=default;" parent="1" vertex="1" connectable="0">
          <mxGeometry x="1260" y="265" width="284.5" height="130" as="geometry" />
        </mxCell>
        <mxCell id="0QPHbNopzDCmvThJAkTK-53" value="" style="rounded=1;whiteSpace=wrap;html=1;absoluteArcSize=1;arcSize=14;strokeWidth=2;fillColor=#dae8fc;strokeColor=#6c8ebf;points=[[0,0,0,0,0],[0,0.25,0,0,0],[0,0.5,0,0,0],[0,0.75,0,0,0],[0,1,0,0,0],[0.11,1,0,0,0],[0.22,1,0,0,0],[0.25,0,0,0,0],[0.25,1,0,0,0],[0.33,1,0,0,0],[0.44,1,0,0,0],[0.5,0,0,0,0],[0.5,1,0,0,0],[0.56,1,0,0,0],[0.67,1,0,0,0],[0.75,0,0,0,0],[0.75,1,0,0,0],[0.78,1,0,0,0],[0.89,1,0,0,0],[1,0,0,0,0],[1,0.25,0,0,0],[1,0.5,0,0,0],[1,0.75,0,0,0],[1,1,0,0,0]];dashed=1;labelBackgroundColor=default;" parent="0QPHbNopzDCmvThJAkTK-91" vertex="1">
          <mxGeometry width="284.5" height="130" as="geometry" />
        </mxCell>
        <mxCell id="0QPHbNopzDCmvThJAkTK-90" value="" style="group;labelBackgroundColor=default;" parent="0QPHbNopzDCmvThJAkTK-91" vertex="1" connectable="0">
          <mxGeometry x="20" y="15" width="244" height="100" as="geometry" />
        </mxCell>
        <mxCell id="0QPHbNopzDCmvThJAkTK-88" value="EventBus&lt;div&gt;消息中间件&lt;/div&gt;" style="rounded=1;whiteSpace=wrap;html=1;absoluteArcSize=1;arcSize=14;strokeWidth=2;labelBackgroundColor=default;" parent="0QPHbNopzDCmvThJAkTK-90" vertex="1">
          <mxGeometry width="100" height="100" as="geometry" />
        </mxCell>
        <mxCell id="0QPHbNopzDCmvThJAkTK-89" value="&lt;div&gt;DiscoveryCenter&lt;/div&gt;&lt;div&gt;发现中心&lt;/div&gt;" style="rounded=1;whiteSpace=wrap;html=1;absoluteArcSize=1;arcSize=14;strokeWidth=2;labelBackgroundColor=default;" parent="0QPHbNopzDCmvThJAkTK-90" vertex="1">
          <mxGeometry x="144" width="100" height="100" as="geometry" />
        </mxCell>
        <mxCell id="0QPHbNopzDCmvThJAkTK-92" style="edgeStyle=orthogonalEdgeStyle;rounded=0;orthogonalLoop=1;jettySize=auto;html=1;exitX=1;exitY=0.5;exitDx=0;exitDy=0;exitPerimeter=0;entryX=0;entryY=0.5;entryDx=0;entryDy=0;entryPerimeter=0;endArrow=classic;endFill=1;startArrow=classic;startFill=1;labelBackgroundColor=default;" parent="1" source="0QPHbNopzDCmvThJAkTK-9" target="0QPHbNopzDCmvThJAkTK-53" edge="1">
          <mxGeometry relative="1" as="geometry" />
        </mxCell>
        <mxCell id="0QPHbNopzDCmvThJAkTK-93" value="双向通讯" style="edgeLabel;html=1;align=center;verticalAlign=middle;resizable=0;points=[];labelBackgroundColor=default;fontSize=16;" parent="0QPHbNopzDCmvThJAkTK-92" vertex="1" connectable="0">
          <mxGeometry x="0.0177" y="4" relative="1" as="geometry">
            <mxPoint as="offset" />
          </mxGeometry>
        </mxCell>
        <mxCell id="0QPHbNopzDCmvThJAkTK-94" value="" style="group;" parent="1" vertex="1" connectable="0">
          <mxGeometry x="910" y="150" width="140" height="360" as="geometry" />
        </mxCell>
        <mxCell id="0QPHbNopzDCmvThJAkTK-9" value="" style="rounded=1;whiteSpace=wrap;html=1;absoluteArcSize=1;arcSize=14;strokeWidth=2;fillColor=#fff2cc;strokeColor=#d6b656;points=[[0,0,0,0,0],[0,0.09,0,0,0],[0,0.18,0,0,0],[0,0.25,0,0,0],[0,0.27,0,0,0],[0,0.36,0,0,0],[0,0.45,0,0,0],[0,0.5,0,0,0],[0,0.55,0,0,0],[0,0.64,0,0,0],[0,0.73,0,0,0],[0,0.75,0,0,0],[0,0.82,0,0,0],[0,0.91,0,0,0],[0,1,0,0,0],[0.25,0,0,0,0],[0.25,1,0,0,0],[0.5,0,0,0,0],[0.5,1,0,0,0],[0.75,0,0,0,0],[0.75,1,0,0,0],[1,0,0,0,0],[1,0.25,0,0,0],[1,0.5,0,0,0],[1,0.75,0,0,0],[1,1,0,0,0]];dashed=1;labelBackgroundColor=default;" parent="0QPHbNopzDCmvThJAkTK-94" vertex="1">
          <mxGeometry width="140" height="360" as="geometry" />
        </mxCell>
        <mxCell id="0QPHbNopzDCmvThJAkTK-85" value="网关" style="rounded=1;whiteSpace=wrap;html=1;absoluteArcSize=1;arcSize=14;strokeWidth=2;labelBackgroundColor=default;" parent="0QPHbNopzDCmvThJAkTK-94" vertex="1">
          <mxGeometry x="24" y="25" width="100" height="85" as="geometry" />
        </mxCell>
        <mxCell id="0QPHbNopzDCmvThJAkTK-86" value="网关" style="rounded=1;whiteSpace=wrap;html=1;absoluteArcSize=1;arcSize=14;strokeWidth=2;labelBackgroundColor=default;" parent="0QPHbNopzDCmvThJAkTK-94" vertex="1">
          <mxGeometry x="24" y="137.5" width="100" height="85" as="geometry" />
        </mxCell>
        <mxCell id="0QPHbNopzDCmvThJAkTK-87" value="网关" style="rounded=1;whiteSpace=wrap;html=1;absoluteArcSize=1;arcSize=14;strokeWidth=2;labelBackgroundColor=default;" parent="0QPHbNopzDCmvThJAkTK-94" vertex="1">
          <mxGeometry x="20" y="250" width="100" height="85" as="geometry" />
        </mxCell>
        <mxCell id="0QPHbNopzDCmvThJAkTK-95" value="1. 游戏服务器或网关,在启动之后都需要注册到发现中心.并保持滑动心跳保活&lt;div style=&quot;font-size: 17px;&quot;&gt;2. 发现中心可以接受管理终端的消息指令.来对连接到发现中心的服务进行操作(关闭,重启,禁用.下线)等等&lt;/div&gt;" style="text;html=1;align=left;verticalAlign=middle;resizable=0;points=[];autosize=1;strokeColor=none;fillColor=none;fontSize=17;" parent="1" vertex="1">
          <mxGeometry x="956" y="715" width="800" height="50" as="geometry" />
        </mxCell>
        <mxCell id="0QPHbNopzDCmvThJAkTK-96" value="数据库" style="strokeWidth=2;html=1;shape=mxgraph.flowchart.database;whiteSpace=wrap;" parent="1" vertex="1">
          <mxGeometry x="2140" y="277.5" width="100" height="105" as="geometry" />
        </mxCell>
        <mxCell id="0QPHbNopzDCmvThJAkTK-97" style="edgeStyle=orthogonalEdgeStyle;rounded=0;orthogonalLoop=1;jettySize=auto;html=1;exitX=1;exitY=0.5;exitDx=0;exitDy=0;entryX=0;entryY=0.15;entryDx=0;entryDy=0;entryPerimeter=0;startArrow=classic;startFill=1;" parent="1" source="0QPHbNopzDCmvThJAkTK-5" target="0QPHbNopzDCmvThJAkTK-96" edge="1">
          <mxGeometry relative="1" as="geometry" />
        </mxCell>
        <mxCell id="0QPHbNopzDCmvThJAkTK-98" style="edgeStyle=orthogonalEdgeStyle;rounded=0;orthogonalLoop=1;jettySize=auto;html=1;exitX=1;exitY=0.5;exitDx=0;exitDy=0;entryX=0;entryY=0.5;entryDx=0;entryDy=0;entryPerimeter=0;startArrow=classic;startFill=1;" parent="1" source="0QPHbNopzDCmvThJAkTK-10" target="0QPHbNopzDCmvThJAkTK-96" edge="1">
          <mxGeometry relative="1" as="geometry" />
        </mxCell>
        <mxCell id="0QPHbNopzDCmvThJAkTK-99" style="edgeStyle=orthogonalEdgeStyle;rounded=0;orthogonalLoop=1;jettySize=auto;html=1;exitX=1;exitY=0.5;exitDx=0;exitDy=0;entryX=0;entryY=0.85;entryDx=0;entryDy=0;entryPerimeter=0;startArrow=classic;startFill=1;" parent="1" source="0QPHbNopzDCmvThJAkTK-11" target="0QPHbNopzDCmvThJAkTK-96" edge="1">
          <mxGeometry relative="1" as="geometry" />
        </mxCell>
        <mxCell id="0QPHbNopzDCmvThJAkTK-102" value="" style="group;" parent="1" vertex="1" connectable="0">
          <mxGeometry x="1700" y="110" width="220" height="440" as="geometry" />
        </mxCell>
        <mxCell id="0QPHbNopzDCmvThJAkTK-101" value="" style="rounded=1;whiteSpace=wrap;html=1;absoluteArcSize=1;arcSize=14;strokeWidth=2;fillColor=#d5e8d4;strokeColor=#82b366;dashed=1;" parent="0QPHbNopzDCmvThJAkTK-102" vertex="1">
          <mxGeometry width="220" height="440" as="geometry" />
        </mxCell>
        <mxCell id="0QPHbNopzDCmvThJAkTK-5" value="游戏逻辑服务器A-1" style="rounded=1;whiteSpace=wrap;html=1;absoluteArcSize=1;arcSize=14;strokeWidth=2;fillColor=#fff2cc;strokeColor=#d6b656;labelBackgroundColor=none;" parent="0QPHbNopzDCmvThJAkTK-102" vertex="1">
          <mxGeometry x="40" y="40" width="140" height="90" as="geometry" />
        </mxCell>
        <mxCell id="0QPHbNopzDCmvThJAkTK-10" value="游戏逻辑服务器B-1" style="rounded=1;whiteSpace=wrap;html=1;absoluteArcSize=1;arcSize=14;strokeWidth=2;fillColor=#e1d5e7;strokeColor=#9673a6;labelBackgroundColor=none;" parent="0QPHbNopzDCmvThJAkTK-102" vertex="1">
          <mxGeometry x="40" y="175" width="140" height="90" as="geometry" />
        </mxCell>
        <mxCell id="0QPHbNopzDCmvThJAkTK-11" value="游戏逻辑服务器C-1" style="rounded=1;whiteSpace=wrap;html=1;absoluteArcSize=1;arcSize=14;strokeWidth=2;fillColor=#ffe6cc;strokeColor=#d79b00;labelBackgroundColor=none;" parent="0QPHbNopzDCmvThJAkTK-102" vertex="1">
          <mxGeometry x="40" y="320" width="140" height="90" as="geometry" />
        </mxCell>
        <mxCell id="0QPHbNopzDCmvThJAkTK-103" style="edgeStyle=orthogonalEdgeStyle;rounded=0;orthogonalLoop=1;jettySize=auto;html=1;exitX=0;exitY=0.5;exitDx=0;exitDy=0;entryX=1;entryY=0.5;entryDx=0;entryDy=0;entryPerimeter=0;startArrow=classic;startFill=1;" parent="1" source="0QPHbNopzDCmvThJAkTK-101" target="0QPHbNopzDCmvThJAkTK-53" edge="1">
          <mxGeometry relative="1" as="geometry" />
        </mxCell>
        <mxCell id="0QPHbNopzDCmvThJAkTK-105" value="&lt;span style=&quot;color: rgba(0, 0, 0, 0); font-family: monospace; font-size: 0px; text-align: start; background-color: rgb(251, 251, 251);&quot;&gt;%3CmxGraphModel%3E%3Croot%3E%3CmxCell%20id%3D%220%22%2F%3E%3CmxCell%20id%3D%221%22%20parent%3D%220%22%2F%3E%3CmxCell%20id%3D%222%22%20value%3D%22%E5%8F%8C%E5%90%91%E9%80%9A%E8%AE%AF%22%20style%3D%22edgeLabel%3Bhtml%3D1%3Balign%3Dcenter%3BverticalAlign%3Dmiddle%3Bresizable%3D0%3Bpoints%3D%5B%5D%3BlabelBackgroundColor%3Ddefault%3BfontSize%3D16%3B%22%20vertex%3D%221%22%20connectable%3D%220%22%20parent%3D%221%22%3E%3CmxGeometry%20x%3D%221156.666666666667%22%20y%3D%22326.00000000000045%22%20as%3D%22geometry%22%2F%3E%3C%2FmxCell%3E%3C%2Froot%3E%3C%2FmxGraphModel%3E&lt;/span&gt;" style="edgeLabel;html=1;align=center;verticalAlign=middle;resizable=0;points=[];" parent="0QPHbNopzDCmvThJAkTK-103" vertex="1" connectable="0">
          <mxGeometry x="-0.0611" y="2" relative="1" as="geometry">
            <mxPoint as="offset" />
          </mxGeometry>
        </mxCell>
        <mxCell id="0QPHbNopzDCmvThJAkTK-106" value="双向通讯" style="edgeLabel;html=1;align=center;verticalAlign=middle;resizable=0;points=[];fontSize=16;" parent="0QPHbNopzDCmvThJAkTK-103" vertex="1" connectable="0">
          <mxGeometry x="-0.0611" y="-1" relative="1" as="geometry">
            <mxPoint as="offset" />
          </mxGeometry>
        </mxCell>
        <mxCell id="0QPHbNopzDCmvThJAkTK-107" style="edgeStyle=orthogonalEdgeStyle;rounded=0;orthogonalLoop=1;jettySize=auto;html=1;exitX=0.5;exitY=1;exitDx=0;exitDy=0;entryX=0.5;entryY=0;entryDx=0;entryDy=0;entryPerimeter=0;" parent="1" source="0QPHbNopzDCmvThJAkTK-12" target="0QPHbNopzDCmvThJAkTK-53" edge="1">
          <mxGeometry relative="1" as="geometry" />
        </mxCell>
        <mxCell id="0QPHbNopzDCmvThJAkTK-108" value="Web服务器发送指令给发现中心" style="edgeLabel;html=1;align=center;verticalAlign=middle;resizable=0;points=[];" parent="0QPHbNopzDCmvThJAkTK-107" vertex="1" connectable="0">
          <mxGeometry x="0.0155" y="-5" relative="1" as="geometry">
            <mxPoint as="offset" />
          </mxGeometry>
        </mxCell>
      </root>
    </mxGraphModel>
  </diagram>
</mxfile>
